<?xml version="1.0" encoding="UTF-8"?>
<svg width="1534px" height="412px" viewBox="0 0 1534 412" xmlns="http://www.w3.org/2000/svg" xmlns:xlink="http://www.w3.org/1999/xlink" version="1.1">
 <!-- Generated by Pixelmator Pro 1.5.4 -->
 <g id="group">
  <g id="New-Group">
   <path id="Pfad" d="M111.4 305.108 C111.4 281.108 91.2 269.908 66.4 269.908 L0 269.908 0 409.508 37.2 409.508 37.2 354.312 45 354.312 C58.8 354.312 63.6 360.312 71.2 384.308 L79.2 409.508 118 409.508 104.4 371.508 C97.4 354.508 96.6 343.908 84.6 340.708 L84.6 340.308 C102.6 336.108 111.4 323.708 111.4 305.108 Z M74.2 311.708 C74.2 327.508 59 327.908 47 327.908 L37.2 327.908 37.2 296.308 47 296.308 C61.2 296.308 74.2 298.708 74.2 311.708 Z" fill="#fdffff" fill-opacity="1" stroke="none"/>
   <path id="Pfad-1" d="M136.2 269.908 L173.4 269.908 173.4 409.508 136.2 409.508 Z" fill="#fdffff" fill-opacity="1" stroke="none"/>
   <path id="Pfad-2" d="M334.6 339.108 C334.6 285.108 300.6 269.908 252 269.908 L201.2 269.908 201.2 409.508 252 409.508 C299.6 409.508 334.6 391.308 334.6 339.108 Z M296.2 339.708 C296.2 367.508 280.6 381.908 252.8 381.908 L238.4 381.908 238.4 297.508 252.8 297.508 C280 297.508 296.2 311.908 296.2 339.708 Z" fill="#fdffff" fill-opacity="1" stroke="none"/>
   <path id="Pfad-3" d="M358.6 269.908 L395.8 269.908 395.8 409.508 358.6 409.508 Z" fill="#fdffff" fill-opacity="1" stroke="none"/>
   <path id="Pfad-4" d="M424.2 409.508 L458.4 409.508 457.2 314.108 457.6 314.108 506.4 409.508 552.6 409.508 552.6 269.908 518.6 269.908 519.2 364.708 518.8 364.708 471.6 269.908 424.2 269.908 Z" fill="#fdffff" fill-opacity="1" stroke="none"/>
   <path id="Pfad-5" d="M708.2 327.908 L650.401 327.908 650.401 354.312 672.2 354.312 672.2 381.908 C668.8 383.508 664 384.308 659 384.308 631.8 384.308 612.401 367.708 612.401 340.308 612.401 307.708 637.2 295.108 667.4 295.108 676.2 295.108 689.8 297.308 701.401 304.108 L704.4 273.708 C690.8 268.508 671.4 267.508 662.2 267.508 611 267.508 574 287.708 574 340.308 574 393.108 617.001 411.908 654.2 411.908 667.001 411.908 684.601 411.508 708.2 405.508 Z" fill="#fdffff" fill-opacity="1" stroke="none"/>
   <path id="Pfad-6" d="M1030.621 305.308 C1030.621 281.308 1011.221 269.908 985.221 269.908 L921.021 269.908 921.021 409.508 979.821 409.508 C1004.821 409.508 1034.221 402.508 1034.221 369.108 1034.221 352.112 1024.622 342.108 1006.022 338.308 L1006.022 337.908 C1021.622 332.708 1030.621 322.908 1030.621 305.308 Z M993.421 310.308 C993.421 322.108 980.821 325.108 968.621 325.108 L958.221 325.108 958.221 296.308 969.022 296.308 C981.421 296.308 993.421 297.508 993.421 310.308 Z M997.021 366.908 C997.021 381.108 982.822 383.108 969.221 383.108 L958.221 383.108 958.221 350.308 969.621 350.308 C982.421 350.308 997.021 351.708 997.021 366.908 Z" fill="#fdffff" fill-opacity="1" stroke="none"/>
   <path id="Pfad-7" d="M1096.222 409.508 L1133.422 409.508 1133.422 356.908 1184.621 269.908 1141.822 269.908 1114.822 325.908 1087.421 269.908 1044.621 269.908 1096.222 356.908 Z" fill="#fdffff" fill-opacity="1" stroke="none"/>
   <path id="Pfad-8" d="M1223.818 409.508 L1261.018 409.508 1261.018 297.508 1295.417 297.508 1295.417 269.908 1189.417 269.908 1189.417 297.508 1223.817 297.508 Z" fill="#fdffff" fill-opacity="1" stroke="none"/>
   <path id="Pfad-9" d="M1310.018 409.508 L1410.617 409.508 1410.617 383.108 1347.218 383.108 1347.218 351.508 1405.017 351.508 1405.017 325.108 1347.218 325.108 1347.218 296.308 1408.418 296.308 1408.418 269.908 1310.018 269.908 Z" fill="#fdffff" fill-opacity="1" stroke="none"/>
   <path id="Pfad-10" d="M1430.418 405.908 C1442.818 409.908 1459.018 411.908 1472.018 411.908 1503.018 411.908 1533.418 402.108 1533.418 365.908 1533.418 315.508 1467.418 330.708 1467.418 308.108 1467.418 295.908 1483.018 295.108 1492.418 295.108 1503.018 295.108 1513.818 297.108 1523.418 301.508 L1525.818 272.708 C1516.418 269.508 1503.217 267.508 1489.818 267.508 1461.818 267.508 1429.017 276.708 1429.017 310.308 1429.017 361.108 1495.018 344.708 1495.018 370.708 1495.018 381.908 1483.817 384.308 1472.018 384.308 1456.618 384.308 1443.218 380.308 1433.617 375.108 Z" fill="#fdffff" fill-opacity="1" stroke="none"/>
  </g>
  <path id="Pfad-11" d="M874.126 279.495 L837.797 247.145 874.388 244.491 Z" fill="#9f8f6e" fill-opacity="1" stroke="none"/>
  <path id="Pfad-12" d="M899.846 227.787 L874.388 244.491 864.576 216.387 Z" fill="#9f8f6e" fill-opacity="1" stroke="none"/>
  <path id="Pfad-13" d="M837.797 247.145 L864.576 216.387 874.388 244.491 Z" fill="#9f8f6e" fill-opacity="1" stroke="none"/>
  <path id="Pfad-14" d="M834.08 217.974 L837.797 247.145 864.576 216.387 Z" fill="#9f8f6e" fill-opacity="1" stroke="none"/>
  <path id="Pfad-15" d="M928.13 217.625 L911.513 207.37 899.846 227.787 Z" fill="#9f8f6e" fill-opacity="1" stroke="none"/>
  <path id="Pfad-16" d="M862.721 204.187 L864.576 216.387 834.079 217.974 Z" fill="#9f8f6e" fill-opacity="1" stroke="none"/>
  <path id="Pfad-17" d="M889.767 205.779 L899.846 227.787 864.576 216.387 Z" fill="#9f8f6e" fill-opacity="1" stroke="none"/>
  <path id="Pfad-18" d="M862.721 204.187 L864.576 216.387 889.767 205.779 Z" fill="#9f8f6e" fill-opacity="1" stroke="none"/>
  <path id="Pfad-19" d="M911.513 207.371 L889.767 205.779 899.846 227.787 Z" fill="#9f8f6e" fill-opacity="1" stroke="none"/>
  <path id="Pfad-20" d="M949.521 202.595 L929.084 205.162 911.513 207.37 928.13 217.625 Z" fill="#9f8f6e" fill-opacity="1" stroke="none"/>
  <path id="Pfad-21" d="M959.067 181.912 L953.23 160.875 949.521 202.595 Z" fill="#9f8f6e" fill-opacity="1" stroke="none"/>
  <path id="Pfad-22" d="M971.622 192.875 L972.326 175.724 959.067 181.912 Z" fill="#9f8f6e" fill-opacity="1" stroke="none"/>
  <path id="Pfad-23" d="M953.23 160.875 L972.326 175.724 959.067 181.912 Z" fill="#9f8f6e" fill-opacity="1" stroke="none"/>
  <path id="Pfad-24" d="M1002.205 188.541 L971.621 192.874 972.326 175.724 Z" fill="#9f8f6e" fill-opacity="1" stroke="none"/>
  <path id="Pfad-25" d="M1025.542 181.645 L1002.205 188.541 972.326 175.724 Z" fill="#9f8f6e" fill-opacity="1" stroke="none"/>
  <path id="Pfad-26" d="M1041.98 186.687 L1043.397 168.299 1025.542 181.645 Z" fill="#9f8f6e" fill-opacity="1" stroke="none"/>
  <path id="Pfad-27" d="M1028.459 218.241 L1041.98 186.687 1035.617 237.599 Z" fill="#9f8f6e" fill-opacity="1" stroke="none"/>
  <path id="Pfad-28" d="M1043.397 168.299 L972.326 175.724 1025.542 181.645 Z" fill="#9f8f6e" fill-opacity="1" stroke="none"/>
  <path id="Pfad-29" d="M875.805 411.908 L845.396 411.554 846.105 395.645 Z" fill="#9f8f6e" fill-opacity="1" stroke="none"/>
  <path id="Pfad-30" d="M871.913 390.341 L846.105 395.645 875.805 411.908 Z" fill="#9f8f6e" fill-opacity="1" stroke="none"/>
  <path id="Pfad-31" d="M823.122 352.508 L871.913 390.342 846.105 395.646 Z" fill="#9f8f6e" fill-opacity="1" stroke="none"/>
  <path id="Pfad-32" d="M860.067 304.954 L829.484 313.616 823.122 352.508 Z" fill="#9f8f6e" fill-opacity="1" stroke="none"/>
  <path id="Pfad-33" d="M803.321 286.745 L860.067 304.954 829.484 313.616 Z" fill="#9f8f6e" fill-opacity="1" stroke="none"/>
  <path id="Pfad-34" d="M1014.138 93.875 L998.226 92.016 1006.446 74.516 Z" fill="#9f8f6e" fill-opacity="1" stroke="none"/>
  <path id="Pfad-35" d="M992.13 62.049 L995.909 80.628 998.226 92.016 1006.446 74.516 Z" fill="#9f8f6e" fill-opacity="1" stroke="none"/>
  <path id="Pfad-36" d="M973.83 74.249 L995.909 80.628 992.13 62.049 Z" fill="#9f8f6e" fill-opacity="1" stroke="none"/>
  <path id="Pfad-37" d="M960.038 47.466 L959.776 66.824 973.83 74.249 Z" fill="#9f8f6e" fill-opacity="1" stroke="none"/>
  <path id="Pfad-38" d="M987.355 46.141 L977.542 42.695 975.155 34.737 Z" fill="#9f8f6e" fill-opacity="1" stroke="none"/>
  <path id="Pfad-39" d="M985.234 37.125 L987.355 46.141 975.155 34.737 Z" fill="#9f8f6e" fill-opacity="1" stroke="none"/>
  <path id="Pfad-40" d="M1018.117 84.325 L1021.826 76.899 1012.546 71.333 Z" fill="#9f8f6e" fill-opacity="1" stroke="none"/>
  <path id="Pfad-41" d="M960.571 27.312 L946.342 21.216 948.634 3.003 954.909 15.779 Z" fill="#9f8f6e" fill-opacity="1" stroke="none"/>
  <path id="Pfad-42" d="M1018.646 246.879 L1019.176 222.483 1028.459 218.241 Z" fill="#9f8f6e" fill-opacity="1" stroke="none"/>
  <path id="Pfad-43" d="M1035.617 237.599 L1032.513 229.208 1028.459 218.241 1018.646 246.879 Z" fill="#9f8f6e" fill-opacity="1" stroke="none"/>
  <path id="Pfad-44" d="M732.517 261.729 L747.634 327.491 729.6 290.633 Z" fill="#9f8f6e" fill-opacity="1" stroke="none"/>
  <path id="Pfad-45" d="M768.847 364.091 L747.634 327.491 770.705 334.654 Z" fill="#9f8f6e" fill-opacity="1" stroke="none"/>
  <path id="Pfad-46" d="M760.096 389.808 L768.846 364.091 770.971 377.083 Z" fill="#9f8f6e" fill-opacity="1" stroke="none"/>
  <path id="Pfad-47" d="M783.434 347.645 L794.305 365.412 772.297 393.52 Z" fill="#9f8f6e" fill-opacity="1" stroke="none"/>
  <path id="Pfad-48" d="M737.821 391.933 L760.096 389.808 772.296 393.521 Z" fill="#9f8f6e" fill-opacity="1" stroke="none"/>
  <path id="Pfad-49" d="M753.996 310.787 L750.284 271.274 789 327.491 Z" fill="#9f8f6e" fill-opacity="1" stroke="none"/>
  <path id="Pfad-50" d="M943.6 11.933 L915.492 36.062 908.684 24.749 Z" fill="#9f8f6e" fill-opacity="1" stroke="none"/>
  <path id="Pfad-51" d="M910.188 50.12 L906.476 82.47 890.301 91.929 Z" fill="#9f8f6e" fill-opacity="1" stroke="none"/>
  <path id="Pfad-52" d="M905.68 90.425 L896.401 122.512 881.109 121.274 Z" fill="#9f8f6e" fill-opacity="1" stroke="none"/>
  <path id="Pfad-53" d="M905.413 26.783 L865.638 49.058 890.654 57.987 Z" fill="#9f8f6e" fill-opacity="1" stroke="none"/>
  <path id="Pfad-54" d="M897.459 56.837 L883.23 100.416 848.4 100.324 Z" fill="#9f8f6e" fill-opacity="1" stroke="none"/>
  <path id="Pfad-55" d="M891.184 96.35 L863.076 131.174 831.609 135.066 Z" fill="#9f8f6e" fill-opacity="1" stroke="none"/>
  <path id="Pfad-56" d="M954.471 -0 L960.571 27.312 954.909 15.779 Z" fill="#9f8f6e" fill-opacity="1" stroke="none"/>
  <path id="Pfad-57" d="M803.321 286.745 L784.229 241.312 787.942 272.07 Z" fill="#9f8f6e" fill-opacity="1" stroke="none"/>
  <path id="Pfad-58" d="M929.084 205.162 L953.23 160.875 949.521 202.595 Z" fill="#9f8f6e" fill-opacity="1" stroke="none"/>
  <path id="Pfad-59" d="M989.743 155.129 L971.18 154.333 981.038 140.666 991.068 126.754 Z" fill="#9f8f6e" fill-opacity="1" stroke="none"/>
  <path id="Pfad-60" d="M964.813 99.708 L981.038 140.666 991.068 126.754 Z" fill="#9f8f6e" fill-opacity="1" stroke="none"/>
  <path id="Pfad-61" d="M968.792 14.32 L1000.613 38.983 990.538 14.053 Z" fill="#9f8f6e" fill-opacity="1" stroke="none"/>
  <path id="Pfad-62" d="M819.23 187.745 L783.167 223.016 803.321 216.387 Z" fill="#9f8f6e" fill-opacity="1" stroke="none"/>
  <path id="Pfad-63" d="M783.167 239.72 L750.284 254.57 759.48 261.996 Z" fill="#9f8f6e" fill-opacity="1" stroke="none"/>
  <path id="Pfad-64" d="M758.771 235.829 L732.517 261.729 750.284 254.57 Z" fill="#9f8f6e" fill-opacity="1" stroke="none"/>
  <path id="Pfad-65" d="M937.326 11.312 L917.526 1.062 888.884 18.387 Z" fill="#9f8f6e" fill-opacity="1" stroke="none"/>
 </g>
</svg>
